<svg xmlns="http://www.w3.org/2000/svg" viewBox="0 0 180.05 85"><defs><style>.cls-1{fill:#fff;}</style></defs><g id="Layer_2" data-name="Layer 2"><g id="Layer_1-2" data-name="Layer 1"><rect width="180.05" height="85" rx="12"/><path class="cls-1" d="M24.77,29.76,25,34.27a9.05,9.05,0,0,1,2.63-3.92A5.75,5.75,0,0,1,31.39,29a5.67,5.67,0,0,1,3.9,1.36,9.8,9.8,0,0,1,2.53,4.14,8.72,8.72,0,0,1,2.32-4.14A5.64,5.64,0,0,1,44.07,29a6.24,6.24,0,0,1,5.6,3.09Q51.62,35.2,51.62,41V62.54H42.83V41a13.83,13.83,0,0,0-.37-3.89A1.41,1.41,0,0,0,41,35.94a1.76,1.76,0,0,0-1.3.5A3.1,3.1,0,0,0,39,38.08,16.18,16.18,0,0,0,38.81,41V62.54H30V41a12.3,12.3,0,0,0-.43-3.89,1.53,1.53,0,0,0-1.49-1.12,1.45,1.45,0,0,0-1.2.5,3.94,3.94,0,0,0-.65,1.64A13.52,13.52,0,0,0,26,41V62.54H17.17V29.76Z"/><path class="cls-1" d="M63.24,61.09A15.43,15.43,0,0,1,57.52,55a18.52,18.52,0,0,1-2.07-8.84,18.58,18.58,0,0,1,2.07-8.85,15.47,15.47,0,0,1,5.72-6.09,16.54,16.54,0,0,1,16.45,0,15.5,15.5,0,0,1,5.73,6.09,18.58,18.58,0,0,1,2.07,8.85A18.52,18.52,0,0,1,85.42,55a15.46,15.46,0,0,1-5.73,6.1,16.54,16.54,0,0,1-16.45,0Zm12.87-8.2a11.62,11.62,0,0,0,1.73-6.74,11.6,11.6,0,0,0-1.73-6.74,5.58,5.58,0,0,0-9.28,0,11.6,11.6,0,0,0-1.73,6.74,11.62,11.62,0,0,0,1.73,6.74,5.59,5.59,0,0,0,9.28,0Z"/><path class="cls-1" d="M104.06,29.76l.68,10.7-1.67-.19c.29-3.62,1.31-6.41,3.06-8.35a9.82,9.82,0,0,1,14.29.38Q123,35.57,123,41.45V62.54h-9.28V43.12a10.42,10.42,0,0,0-1.08-5.38A3.57,3.57,0,0,0,109.38,36,3.81,3.81,0,0,0,106,37.77a9.89,9.89,0,0,0-1.15,5.35V62.54H95.65V29.76Z"/><path class="cls-1" d="M137.46,61.09a15.43,15.43,0,0,1-5.72-6.1,18.52,18.52,0,0,1-2.07-8.84,18.58,18.58,0,0,1,2.07-8.85,15.47,15.47,0,0,1,5.72-6.09,16.54,16.54,0,0,1,16.45,0,15.47,15.47,0,0,1,5.72,6.09,18.58,18.58,0,0,1,2.07,8.85A18.52,18.52,0,0,1,159.63,55a15.43,15.43,0,0,1-5.72,6.1,16.54,16.54,0,0,1-16.45,0Zm12.86-8.2a11.54,11.54,0,0,0,1.73-6.74,11.52,11.52,0,0,0-1.73-6.74,5.57,5.57,0,0,0-9.27,0,11.52,11.52,0,0,0-1.74,6.74,11.54,11.54,0,0,0,1.74,6.74,5.58,5.58,0,0,0,9.27,0Z"/></g></g></svg>